<mxfile host="app.diagrams.net" modified="2023-10-30T11:34:58.443Z" agent="Mozilla/5.0 (Windows NT 10.0; Win64; x64) AppleWebKit/537.36 (KHTML, like Gecko) Chrome/118.0.0.0 Safari/537.36" etag="KB0AsZp5oPYdDcucVPw_" version="22.0.8" type="github">
  <diagram name="Page-1" id="kdnGlgF2G1uL83qOqzaw">
    <mxGraphModel dx="2284" dy="772" grid="1" gridSize="10" guides="1" tooltips="1" connect="1" arrows="1" fold="1" page="1" pageScale="1" pageWidth="850" pageHeight="1100" math="0" shadow="0">
      <root>
        <mxCell id="0" />
        <mxCell id="1" parent="0" />
        <mxCell id="-AfDbPQTEwIWN2jDkt0N-29" style="edgeStyle=orthogonalEdgeStyle;rounded=0;orthogonalLoop=1;jettySize=auto;html=1;" edge="1" parent="1" source="-AfDbPQTEwIWN2jDkt0N-1" target="-AfDbPQTEwIWN2jDkt0N-2">
          <mxGeometry relative="1" as="geometry" />
        </mxCell>
        <mxCell id="-AfDbPQTEwIWN2jDkt0N-38" style="edgeStyle=orthogonalEdgeStyle;rounded=0;orthogonalLoop=1;jettySize=auto;html=1;entryX=0;entryY=0.75;entryDx=0;entryDy=0;" edge="1" parent="1" source="-AfDbPQTEwIWN2jDkt0N-1" target="-AfDbPQTEwIWN2jDkt0N-2">
          <mxGeometry relative="1" as="geometry" />
        </mxCell>
        <mxCell id="-AfDbPQTEwIWN2jDkt0N-1" value="" style="verticalLabelPosition=bottom;sketch=0;aspect=fixed;html=1;verticalAlign=top;strokeColor=none;align=center;outlineConnect=0;shape=mxgraph.citrix.web_server;" vertex="1" parent="1">
          <mxGeometry x="50" y="165" width="76.5" height="90" as="geometry" />
        </mxCell>
        <mxCell id="-AfDbPQTEwIWN2jDkt0N-2" value="" style="image;html=1;image=img/lib/clip_art/networking/Firewall_02_128x128.png" vertex="1" parent="1">
          <mxGeometry x="250" y="80" width="80" height="80" as="geometry" />
        </mxCell>
        <mxCell id="-AfDbPQTEwIWN2jDkt0N-30" style="edgeStyle=orthogonalEdgeStyle;rounded=0;orthogonalLoop=1;jettySize=auto;html=1;" edge="1" parent="1" source="-AfDbPQTEwIWN2jDkt0N-7" target="-AfDbPQTEwIWN2jDkt0N-1">
          <mxGeometry relative="1" as="geometry" />
        </mxCell>
        <mxCell id="-AfDbPQTEwIWN2jDkt0N-31" style="edgeStyle=orthogonalEdgeStyle;rounded=0;orthogonalLoop=1;jettySize=auto;html=1;" edge="1" parent="1" source="-AfDbPQTEwIWN2jDkt0N-3">
          <mxGeometry relative="1" as="geometry">
            <mxPoint x="520" y="210" as="targetPoint" />
          </mxGeometry>
        </mxCell>
        <mxCell id="-AfDbPQTEwIWN2jDkt0N-32" style="edgeStyle=orthogonalEdgeStyle;rounded=0;orthogonalLoop=1;jettySize=auto;html=1;" edge="1" parent="1" source="-AfDbPQTEwIWN2jDkt0N-25">
          <mxGeometry relative="1" as="geometry">
            <mxPoint x="470" y="120" as="targetPoint" />
          </mxGeometry>
        </mxCell>
        <mxCell id="-AfDbPQTEwIWN2jDkt0N-3" value="" style="image;aspect=fixed;perimeter=ellipsePerimeter;html=1;align=center;shadow=0;dashed=0;fontColor=#4277BB;labelBackgroundColor=default;fontSize=12;spacingTop=3;image=img/lib/ibm/applications/app_server.svg;" vertex="1" parent="1">
          <mxGeometry x="330" y="180" width="60" height="60" as="geometry" />
        </mxCell>
        <mxCell id="-AfDbPQTEwIWN2jDkt0N-4" value="" style="sketch=0;pointerEvents=1;shadow=0;dashed=0;html=1;strokeColor=none;fillColor=#505050;labelPosition=center;verticalLabelPosition=bottom;verticalAlign=top;outlineConnect=0;align=center;shape=mxgraph.office.servers.3rd_party_mail_server;" vertex="1" parent="1">
          <mxGeometry x="520" y="181" width="47" height="59" as="geometry" />
        </mxCell>
        <mxCell id="-AfDbPQTEwIWN2jDkt0N-5" value="" style="image;aspect=fixed;perimeter=ellipsePerimeter;html=1;align=center;shadow=0;dashed=0;spacingTop=3;image=img/lib/active_directory/sql_server.svg;" vertex="1" parent="1">
          <mxGeometry x="267.5" y="340" width="53.9" height="70" as="geometry" />
        </mxCell>
        <mxCell id="-AfDbPQTEwIWN2jDkt0N-6" value="Traditional&#xa;server" style="sketch=0;outlineConnect=0;fontColor=#232F3E;gradientColor=none;strokeColor=#232F3E;fillColor=#ffffff;dashed=0;verticalLabelPosition=bottom;verticalAlign=top;align=center;html=1;fontSize=12;fontStyle=0;aspect=fixed;shape=mxgraph.aws4.resourceIcon;resIcon=mxgraph.aws4.traditional_server;" vertex="1" parent="1">
          <mxGeometry x="430" y="40" width="80" height="80" as="geometry" />
        </mxCell>
        <mxCell id="-AfDbPQTEwIWN2jDkt0N-36" style="edgeStyle=orthogonalEdgeStyle;rounded=0;orthogonalLoop=1;jettySize=auto;html=1;" edge="1" parent="1" source="-AfDbPQTEwIWN2jDkt0N-8">
          <mxGeometry relative="1" as="geometry">
            <mxPoint x="290" y="410" as="targetPoint" />
          </mxGeometry>
        </mxCell>
        <mxCell id="-AfDbPQTEwIWN2jDkt0N-8" value="" style="image;aspect=fixed;perimeter=ellipsePerimeter;html=1;align=center;shadow=0;dashed=0;spacingTop=3;image=img/lib/active_directory/database_cube.svg;" vertex="1" parent="1">
          <mxGeometry x="267.5" y="460" width="45" height="50" as="geometry" />
        </mxCell>
        <mxCell id="-AfDbPQTEwIWN2jDkt0N-14" value="" style="verticalLabelPosition=bottom;sketch=0;html=1;fillColor=#A153A0;strokeColor=#ffffff;verticalAlign=top;align=center;points=[[0,0.5,0],[0.125,0.25,0],[0.25,0,0],[0.5,0,0],[0.75,0,0],[0.875,0.25,0],[1,0.5,0],[0.875,0.75,0],[0.75,1,0],[0.5,1,0],[0.125,0.75,0]];pointerEvents=1;shape=mxgraph.cisco_safe.compositeIcon;bgIcon=ellipse;resIcon=mxgraph.cisco_safe.design.users;" vertex="1" parent="1">
          <mxGeometry x="-90" y="95" width="50" height="50" as="geometry" />
        </mxCell>
        <mxCell id="-AfDbPQTEwIWN2jDkt0N-15" value="" style="verticalLabelPosition=bottom;sketch=0;html=1;fillColor=#A153A0;strokeColor=#ffffff;verticalAlign=top;align=center;points=[[0,0.5,0],[0.125,0.25,0],[0.25,0,0],[0.5,0,0],[0.75,0,0],[0.875,0.25,0],[1,0.5,0],[0.875,0.75,0],[0.75,1,0],[0.5,1,0],[0.125,0.75,0]];pointerEvents=1;shape=mxgraph.cisco_safe.compositeIcon;bgIcon=ellipse;resIcon=mxgraph.cisco_safe.design.users;" vertex="1" parent="1">
          <mxGeometry x="-90" y="200" width="50" height="50" as="geometry" />
        </mxCell>
        <mxCell id="-AfDbPQTEwIWN2jDkt0N-16" value="" style="verticalLabelPosition=bottom;sketch=0;html=1;fillColor=#A153A0;strokeColor=#ffffff;verticalAlign=top;align=center;points=[[0,0.5,0],[0.125,0.25,0],[0.25,0,0],[0.5,0,0],[0.75,0,0],[0.875,0.25,0],[1,0.5,0],[0.875,0.75,0],[0.75,1,0],[0.5,1,0],[0.125,0.75,0]];pointerEvents=1;shape=mxgraph.cisco_safe.compositeIcon;bgIcon=ellipse;resIcon=mxgraph.cisco_safe.design.users;" vertex="1" parent="1">
          <mxGeometry x="-90" y="303" width="50" height="50" as="geometry" />
        </mxCell>
        <mxCell id="-AfDbPQTEwIWN2jDkt0N-27" value="" style="shape=ext;double=1;rounded=0;whiteSpace=wrap;html=1;fillColor=none;" vertex="1" parent="1">
          <mxGeometry x="-220" y="70" width="370" height="310" as="geometry" />
        </mxCell>
        <mxCell id="-AfDbPQTEwIWN2jDkt0N-33" value="" style="edgeStyle=orthogonalEdgeStyle;rounded=0;orthogonalLoop=1;jettySize=auto;html=1;" edge="1" parent="1" source="-AfDbPQTEwIWN2jDkt0N-3" target="-AfDbPQTEwIWN2jDkt0N-25">
          <mxGeometry relative="1" as="geometry">
            <mxPoint x="470" y="120" as="targetPoint" />
            <mxPoint x="430" y="210" as="sourcePoint" />
          </mxGeometry>
        </mxCell>
        <mxCell id="-AfDbPQTEwIWN2jDkt0N-25" value="" style="sketch=0;points=[[0.015,0.015,0],[0.985,0.015,0],[0.985,0.985,0],[0.015,0.985,0],[0.25,0,0],[0.5,0,0],[0.75,0,0],[1,0.25,0],[1,0.5,0],[1,0.75,0],[0.75,1,0],[0.5,1,0],[0.25,1,0],[0,0.75,0],[0,0.5,0],[0,0.25,0]];verticalLabelPosition=bottom;html=1;verticalAlign=top;aspect=fixed;align=center;pointerEvents=1;shape=mxgraph.cisco19.rect;prIcon=l2_switch;fillColor=#FAFAFA;strokeColor=#005073;" vertex="1" parent="1">
          <mxGeometry x="444.5" y="185" width="50" height="50" as="geometry" />
        </mxCell>
        <mxCell id="-AfDbPQTEwIWN2jDkt0N-34" value="" style="edgeStyle=orthogonalEdgeStyle;rounded=0;orthogonalLoop=1;jettySize=auto;html=1;" edge="1" parent="1" source="-AfDbPQTEwIWN2jDkt0N-3" target="-AfDbPQTEwIWN2jDkt0N-7">
          <mxGeometry relative="1" as="geometry">
            <mxPoint x="330" y="210" as="sourcePoint" />
            <mxPoint x="127" y="210" as="targetPoint" />
          </mxGeometry>
        </mxCell>
        <mxCell id="-AfDbPQTEwIWN2jDkt0N-7" value="" style="verticalLabelPosition=bottom;sketch=0;html=1;fillColor=#282828;strokeColor=none;verticalAlign=top;pointerEvents=1;align=center;shape=mxgraph.cisco_safe.security_icons.ids;" vertex="1" parent="1">
          <mxGeometry x="260" y="192.75" width="46" height="35.5" as="geometry" />
        </mxCell>
        <mxCell id="-AfDbPQTEwIWN2jDkt0N-37" style="edgeStyle=orthogonalEdgeStyle;rounded=0;orthogonalLoop=1;jettySize=auto;html=1;entryX=0.739;entryY=0.599;entryDx=0;entryDy=0;entryPerimeter=0;" edge="1" parent="1" source="-AfDbPQTEwIWN2jDkt0N-5" target="-AfDbPQTEwIWN2jDkt0N-7">
          <mxGeometry relative="1" as="geometry" />
        </mxCell>
        <mxCell id="-AfDbPQTEwIWN2jDkt0N-39" value="" style="shape=ext;double=1;rounded=0;whiteSpace=wrap;html=1;fillColor=none;" vertex="1" parent="1">
          <mxGeometry x="220" y="20" width="430" height="510" as="geometry" />
        </mxCell>
        <mxCell id="-AfDbPQTEwIWN2jDkt0N-40" value="Frontend" style="text;strokeColor=none;fillColor=none;html=1;fontSize=24;fontStyle=1;verticalAlign=middle;align=center;" vertex="1" parent="1">
          <mxGeometry x="38.25" y="340" width="100" height="40" as="geometry" />
        </mxCell>
        <mxCell id="-AfDbPQTEwIWN2jDkt0N-41" value="Backend" style="text;strokeColor=none;fillColor=none;html=1;fontSize=24;fontStyle=1;verticalAlign=middle;align=center;" vertex="1" parent="1">
          <mxGeometry x="540" y="490" width="100" height="40" as="geometry" />
        </mxCell>
        <mxCell id="-AfDbPQTEwIWN2jDkt0N-42" value="U&lt;br&gt;S&lt;br&gt;E&lt;br&gt;R&lt;br&gt;S" style="text;strokeColor=none;fillColor=none;html=1;fontSize=24;fontStyle=1;verticalAlign=middle;align=center;" vertex="1" parent="1">
          <mxGeometry x="-130" y="141" width="40" height="139" as="geometry" />
        </mxCell>
        <mxCell id="-AfDbPQTEwIWN2jDkt0N-43" value="&lt;font style=&quot;font-size: 18px;&quot;&gt;Application&lt;br&gt;Server&lt;/font&gt;" style="text;strokeColor=none;fillColor=none;html=1;fontSize=24;fontStyle=1;verticalAlign=middle;align=center;" vertex="1" parent="1">
          <mxGeometry x="330" y="255" width="82.5" height="15" as="geometry" />
        </mxCell>
        <mxCell id="-AfDbPQTEwIWN2jDkt0N-45" value="Firewall" style="text;strokeColor=none;fillColor=none;html=1;fontSize=24;fontStyle=1;verticalAlign=middle;align=center;" vertex="1" parent="1">
          <mxGeometry x="240" y="40" width="100" height="40" as="geometry" />
        </mxCell>
        <mxCell id="-AfDbPQTEwIWN2jDkt0N-46" value="&lt;font style=&quot;font-size: 18px;&quot;&gt;Employee&amp;nbsp;&lt;br&gt;Server&lt;/font&gt;" style="text;strokeColor=none;fillColor=none;html=1;fontSize=24;fontStyle=1;verticalAlign=middle;align=center;" vertex="1" parent="1">
          <mxGeometry x="480" y="30" width="100" height="40" as="geometry" />
        </mxCell>
        <mxCell id="-AfDbPQTEwIWN2jDkt0N-47" value="&lt;font style=&quot;font-size: 20px;&quot;&gt;Email &lt;br&gt;Server&lt;/font&gt;" style="text;strokeColor=none;fillColor=none;html=1;fontSize=24;fontStyle=1;verticalAlign=middle;align=center;" vertex="1" parent="1">
          <mxGeometry x="550" y="190.5" width="100" height="40" as="geometry" />
        </mxCell>
        <mxCell id="-AfDbPQTEwIWN2jDkt0N-48" value="LAN" style="text;strokeColor=none;fillColor=none;html=1;fontSize=24;fontStyle=1;verticalAlign=middle;align=center;" vertex="1" parent="1">
          <mxGeometry x="419.5" y="235" width="100" height="40" as="geometry" />
        </mxCell>
        <mxCell id="-AfDbPQTEwIWN2jDkt0N-50" value="DBMS" style="text;strokeColor=none;fillColor=none;html=1;fontSize=24;fontStyle=1;verticalAlign=middle;align=center;" vertex="1" parent="1">
          <mxGeometry x="306" y="360" width="100" height="40" as="geometry" />
        </mxCell>
        <mxCell id="-AfDbPQTEwIWN2jDkt0N-51" value="Web&lt;br&gt;Server" style="text;strokeColor=none;fillColor=none;html=1;fontSize=24;fontStyle=1;verticalAlign=middle;align=center;" vertex="1" parent="1">
          <mxGeometry x="26.5" y="263" width="100" height="40" as="geometry" />
        </mxCell>
      </root>
    </mxGraphModel>
  </diagram>
</mxfile>
